<?xml version="1.0" encoding="UTF-8" standalone="no"?>
<!-- Created with Inkscape (http://www.inkscape.org/) -->

<svg
   width="47.438866mm"
   height="54.66325mm"
   viewBox="0 0 47.438866 54.66325"
   version="1.1"
   id="svg1"
   xml:space="preserve"
   sodipodi:docname="logo.svg"
   inkscape:version="1.3.2 (091e20e, 2023-11-25, custom)"
   xmlns:inkscape="http://www.inkscape.org/namespaces/inkscape"
   xmlns:sodipodi="http://sodipodi.sourceforge.net/DTD/sodipodi-0.dtd"
   xmlns="http://www.w3.org/2000/svg"
   xmlns:svg="http://www.w3.org/2000/svg"><sodipodi:namedview
     id="namedview1"
     pagecolor="#ffffff"
     bordercolor="#000000"
     borderopacity="0.25"
     inkscape:showpageshadow="2"
     inkscape:pageopacity="0.0"
     inkscape:pagecheckerboard="0"
     inkscape:deskcolor="#d1d1d1"
     inkscape:document-units="mm"
     inkscape:zoom="4.0222407"
     inkscape:cx="89.62666"
     inkscape:cy="103.30063"
     inkscape:window-width="1920"
     inkscape:window-height="1027"
     inkscape:window-x="1912"
     inkscape:window-y="-8"
     inkscape:window-maximized="1"
     inkscape:current-layer="layer1" /><defs
     id="defs1" /><g
     inkscape:label="Calque 1"
     inkscape:groupmode="layer"
     id="layer1"
     transform="translate(-117.10524,-90.315885)"><g
       id="g17"
       transform="matrix(0.26458333,0,0,0.26458333,28.376317,109.84644)"
       inkscape:export-filename="..\..\html5up-dimension\images\logo.png"
       inkscape:export-xdpi="96"
       inkscape:export-ydpi="96">      <g
   id="g16">              <g
   id="g1"
   transform="translate(-52.338342,-112.94063)"
   inkscape:export-filename="g1.png"
   inkscape:export-xdpi="96"
   inkscape:export-ydpi="96"><polygon
     class="st2"
     points="542.03,105.16 542.03,198.97 477.34,236.23 412.66,198.97 412.66,105.16 477.34,67.9 "
     id="polygon5" /><polygon
     class="st3"
     points="438.55,121.01 477.55,141.14 475.23,235.42 436.52,215.57 "
     id="polygon6"
     style="fill:#2c5aa0" /><polygon
     class="st1"
     points="516.12,119.16 477.12,139.29 478.06,234.25 516.76,214.4 "
     id="polygon7"
     style="fill:#5f8dd3" /><polygon
     class="st4"
     points="440.01,117.1 480.32,138.42 514.05,117.88 476.06,94.62 "
     id="polygon8"
     style="fill:#214478" /><polygon
     class="st5"
     points="516.43,119.91 516.43,215.11 477.34,236.76 438.26,215.11 438.26,119.91 477.34,97.39 "
     id="polygon9" /><polygon
     class="st6"
     points="560.45,94.55 560.45,190.3 477.34,238.18 394.23,190.3 394.23,94.55 477.34,46.67 "
     id="polygon10" /><line
     class="st7"
     x1="476.97"
     y1="139.99001"
     x2="476.97"
     y2="238.49001"
     id="line10" /><line
     class="st5"
     x1="477.26001"
     y1="140.05"
     x2="560.90002"
     y2="94.550003"
     id="line11" /><line
     class="st5"
     x1="477.26001"
     y1="140.05"
     x2="394.41"
     y2="94.550003"
     id="line12" /><line
     class="st5"
     x1="476.20999"
     y1="172.92"
     x2="437.97"
     y2="151.3"
     id="line13" /><line
     class="st5"
     x1="476.20999"
     y1="203.87"
     x2="437.97"
     y2="182.24001"
     id="line14" /><line
     class="st7"
     x1="477.10999"
     y1="172.92"
     x2="515.35999"
     y2="151.3"
     id="line15" /><line
     class="st5"
     x1="477.10999"
     y1="203.87"
     x2="515.35999"
     y2="182.24001"
     id="line16" /></g> </g> </g></g><style
     type="text/css"
     id="style1"> .st0{fill:#1A1F28;} .st1{fill:#F2A91E;} .st2{opacity:0.4;fill:#72A8DA;} .st3{fill:#C56728;} .st4{fill:#EB8523;} .st5{fill:none;stroke:#1A1F28;stroke-width:9.8074;stroke-miterlimit:10;} .st6{fill:none;stroke:#1A1F28;stroke-width:13.0765;stroke-miterlimit:10;} .st7{fill:none;stroke:#1A1F28;stroke-width:9.8107;stroke-miterlimit:10;} </style></svg>
