<svg xmlns="http://www.w3.org/2000/svg" version="1.1" xmlns:xlink="http://www.w3.org/1999/xlink" xmlns:svgjs="http://svgjs.dev/svgjs" width="1920" height="1080" preserveAspectRatio="none" viewBox="0 0 1920 1080"><g mask="url(&quot;#SvgjsMask1665&quot;)" fill="none"><rect width="1920" height="1080" x="0" y="0" fill="url(&quot;#SvgjsLinearGradient1666&quot;)"></rect><path d="M218.80406709235123 404.1634061887338L521.3139779179348 383.009852543385 500.16042427258606 80.49994171780139 197.65051344700245 101.65349536315017z" fill="rgba(40, 67, 138, 0.42)" class="triangle-float2"></path><path d="M719.9728766272888 325.0621497964132L667.8945752945857 99.4862440001094 442.3186694982819 151.56454533281243 494.39697083098497 377.1404511291163z" fill="rgba(40, 67, 138, 0.42)" class="triangle-float1"></path><path d="M1578.6950089793406 268.73116746002535L1867.5106956156255 258.6455014413986 1857.4250295969987-30.170185194886187 1568.6093429607138-20.084519176259448z" fill="rgba(40, 67, 138, 0.42)" class="triangle-float3"></path><path d="M1092.0687883673854 425.4785550909866L1109.0849720235535 587.3767280157557 1270.9831449483227 570.3605443595876 1253.9669612921546 408.4623714348185z" fill="rgba(40, 67, 138, 0.42)" class="triangle-float1"></path><path d="M354.1616328941832 766.3315636815519L273.07864207615256 543.5578773071665 50.30495570176714 624.640868125197 131.38794651979774 847.4145544995824z" fill="rgba(40, 67, 138, 0.42)" class="triangle-float3"></path><path d="M1136.8553074699375-113.72308438801525L1066.1585998977584 91.59506275897434 1271.476747044748 162.29177033115354 1342.173454616927-43.026376815836045z" fill="rgba(40, 67, 138, 0.42)" class="triangle-float2"></path><path d="M521.5237201017521 84.42973774471689L250.25217488983373 188.56112768005613 354.383564825173 459.83267289197454 625.6551100370914 355.7012829566353z" fill="rgba(40, 67, 138, 0.42)" class="triangle-float2"></path><path d="M399.22435230723534 1155.1824135971522L391.04378172087655 920.9215222874111 156.7828904111355 929.1020928737698 164.96346099749428 1163.362984183511z" fill="rgba(40, 67, 138, 0.42)" class="triangle-float2"></path><path d="M1420.2338222881858 663.6328820045528L1505.1221543732809 896.861657583517 1738.350929952245 811.9733254984219 1653.46259786715 578.7445499194578z" fill="rgba(40, 67, 138, 0.42)" class="triangle-float3"></path><path d="M101.19436851686092 960.9507316600475L222.16497653166067 821.7899659975053 83.00421086911844 700.8193579827055-37.96639714568133 839.9801236452478z" fill="rgba(40, 67, 138, 0.42)" class="triangle-float2"></path><path d="M1788.3514389235133 10.009017661717856L1847.104503698621 171.43173645508156 2008.527222491985 112.67867167997369 1949.774157716877-48.74404711339001z" fill="rgba(40, 67, 138, 0.42)" class="triangle-float1"></path><path d="M1435.6243173459243 258.202993366581L1595.1748015955948 129.00155873266647 1465.9733669616803-30.548925517003966 1306.4228827120098 98.65250911691052z" fill="rgba(40, 67, 138, 0.42)" class="triangle-float1"></path><path d="M432.5722494200687 1031.0770085155564L329.189866123955 844.5702519955926 142.68310960399123 947.9526352917063 246.06549290010494 1134.45939181167z" fill="rgba(40, 67, 138, 0.42)" class="triangle-float1"></path><path d="M1984.6445717623994 41.61484485823985L1684.908599680602 36.382934004229675 1679.676688826592 336.1189060860271 1979.4126609083892 341.35081694003725z" fill="rgba(40, 67, 138, 0.42)" class="triangle-float2"></path><path d="M764.6242340952656 786.2860016870999L813.1473572443042 1061.4743078333122 1088.3356633905164 1012.9511846842735 1039.8125402414778 737.7628785380613z" fill="rgba(40, 67, 138, 0.42)" class="triangle-float3"></path><path d="M165.62582455707542 565.5942671983659L-1.5077294932189318 444.1646323241444-122.93736436744035 611.2981863744387 44.19618968285397 732.7278212486602z" fill="rgba(40, 67, 138, 0.42)" class="triangle-float2"></path><path d="M1017.1241501584141 614.4413789848056L914.6407619589509 487.88493430521066 788.0843172793559 590.368322504674 890.5677054788191 716.9247671842688z" fill="rgba(40, 67, 138, 0.42)" class="triangle-float2"></path></g><defs><mask id="SvgjsMask1665"><rect width="1920" height="1080" fill="#ffffff"></rect></mask><linearGradient x1="10.94%" y1="-19.44%" x2="89.06%" y2="119.44%" gradientUnits="userSpaceOnUse" id="SvgjsLinearGradient1666"><stop stop-color="#0e2a47" offset="0"></stop><stop stop-color="rgba(13, 43, 98, 1)" offset="1"></stop></linearGradient><style>
                @keyframes float1 {
                    0%{transform: translate(0, 0)}
                    50%{transform: translate(-10px, 0)}
                    100%{transform: translate(0, 0)}
                }

                .triangle-float1 {
                    animation: float1 5s infinite;
                }

                @keyframes float2 {
                    0%{transform: translate(0, 0)}
                    50%{transform: translate(-5px, -5px)}
                    100%{transform: translate(0, 0)}
                }

                .triangle-float2 {
                    animation: float2 4s infinite;
                }

                @keyframes float3 {
                    0%{transform: translate(0, 0)}
                    50%{transform: translate(0, -10px)}
                    100%{transform: translate(0, 0)}
                }

                .triangle-float3 {
                    animation: float3 6s infinite;
                }
            </style></defs></svg>